<mxfile host="app.diagrams.net" modified="2022-04-15T10:34:08.153Z" agent="5.0 (Windows NT 10.0; WOW64) AppleWebKit/537.36 (KHTML, like Gecko) Chrome/88.0.4324.186 Safari/537.36" etag="dns6_18EqKSdODBvxIGt" version="17.4.4" type="github">
  <diagram id="a5L7xohFr41d-8u4_TB0" name="Page-1">
    <mxGraphModel dx="1727" dy="3279" grid="1" gridSize="10" guides="1" tooltips="1" connect="1" arrows="1" fold="1" page="1" pageScale="1" pageWidth="827" pageHeight="1169" math="0" shadow="0">
      <root>
        <mxCell id="0" />
        <mxCell id="1" parent="0" />
        <mxCell id="CUQLExU0p5yGPLY8ELJB-6" value="" style="edgeStyle=orthogonalEdgeStyle;rounded=0;orthogonalLoop=1;jettySize=auto;html=1;" edge="1" parent="1" source="CUQLExU0p5yGPLY8ELJB-1" target="CUQLExU0p5yGPLY8ELJB-14">
          <mxGeometry relative="1" as="geometry">
            <mxPoint x="125" y="-1700" as="targetPoint" />
          </mxGeometry>
        </mxCell>
        <mxCell id="CUQLExU0p5yGPLY8ELJB-1" value="Start" style="rounded=1;whiteSpace=wrap;html=1;" vertex="1" parent="1">
          <mxGeometry x="65" y="-1800" width="120" height="60" as="geometry" />
        </mxCell>
        <mxCell id="CUQLExU0p5yGPLY8ELJB-3" style="edgeStyle=orthogonalEdgeStyle;rounded=0;orthogonalLoop=1;jettySize=auto;html=1;exitX=0.75;exitY=0;exitDx=0;exitDy=0;entryX=0.667;entryY=0;entryDx=0;entryDy=0;entryPerimeter=0;" edge="1" parent="1" source="CUQLExU0p5yGPLY8ELJB-1" target="CUQLExU0p5yGPLY8ELJB-1">
          <mxGeometry relative="1" as="geometry" />
        </mxCell>
        <mxCell id="CUQLExU0p5yGPLY8ELJB-4" value="1. Anmeldung&lt;br&gt;" style="text;html=1;strokeColor=none;fillColor=none;align=center;verticalAlign=middle;whiteSpace=wrap;rounded=0;" vertex="1" parent="1">
          <mxGeometry x="50" y="-1860" width="150" height="30" as="geometry" />
        </mxCell>
        <mxCell id="CUQLExU0p5yGPLY8ELJB-22" value="Nein" style="edgeStyle=orthogonalEdgeStyle;rounded=0;orthogonalLoop=1;jettySize=auto;html=1;" edge="1" parent="1" source="CUQLExU0p5yGPLY8ELJB-10" target="CUQLExU0p5yGPLY8ELJB-21">
          <mxGeometry relative="1" as="geometry" />
        </mxCell>
        <mxCell id="CUQLExU0p5yGPLY8ELJB-25" value="Ja" style="edgeStyle=orthogonalEdgeStyle;rounded=0;orthogonalLoop=1;jettySize=auto;html=1;" edge="1" parent="1" source="CUQLExU0p5yGPLY8ELJB-10" target="CUQLExU0p5yGPLY8ELJB-24">
          <mxGeometry relative="1" as="geometry" />
        </mxCell>
        <mxCell id="CUQLExU0p5yGPLY8ELJB-10" value="Username vorhanden" style="rhombus;whiteSpace=wrap;html=1;" vertex="1" parent="1">
          <mxGeometry x="80" y="-1510" width="90" height="90" as="geometry" />
        </mxCell>
        <mxCell id="CUQLExU0p5yGPLY8ELJB-14" value="Username /Email eingeben" style="shape=parallelogram;perimeter=parallelogramPerimeter;whiteSpace=wrap;html=1;fixedSize=1;" vertex="1" parent="1">
          <mxGeometry x="55" y="-1700" width="140" height="60" as="geometry" />
        </mxCell>
        <mxCell id="CUQLExU0p5yGPLY8ELJB-16" style="edgeStyle=orthogonalEdgeStyle;rounded=0;orthogonalLoop=1;jettySize=auto;html=1;exitX=0.5;exitY=1;exitDx=0;exitDy=0;" edge="1" parent="1" source="CUQLExU0p5yGPLY8ELJB-14" target="CUQLExU0p5yGPLY8ELJB-17">
          <mxGeometry relative="1" as="geometry">
            <mxPoint x="125" y="-1590" as="targetPoint" />
          </mxGeometry>
        </mxCell>
        <mxCell id="CUQLExU0p5yGPLY8ELJB-18" style="edgeStyle=orthogonalEdgeStyle;rounded=0;orthogonalLoop=1;jettySize=auto;html=1;" edge="1" parent="1" source="CUQLExU0p5yGPLY8ELJB-17" target="CUQLExU0p5yGPLY8ELJB-10">
          <mxGeometry relative="1" as="geometry" />
        </mxCell>
        <mxCell id="CUQLExU0p5yGPLY8ELJB-17" value="Passwort eingeben" style="shape=parallelogram;perimeter=parallelogramPerimeter;whiteSpace=wrap;html=1;fixedSize=1;" vertex="1" parent="1">
          <mxGeometry x="60" y="-1590" width="130" height="50" as="geometry" />
        </mxCell>
        <mxCell id="CUQLExU0p5yGPLY8ELJB-23" style="edgeStyle=orthogonalEdgeStyle;rounded=0;orthogonalLoop=1;jettySize=auto;html=1;entryX=1;entryY=0.5;entryDx=0;entryDy=0;" edge="1" parent="1" source="CUQLExU0p5yGPLY8ELJB-21" target="CUQLExU0p5yGPLY8ELJB-14">
          <mxGeometry relative="1" as="geometry">
            <Array as="points">
              <mxPoint x="340" y="-1670" />
            </Array>
          </mxGeometry>
        </mxCell>
        <mxCell id="CUQLExU0p5yGPLY8ELJB-21" value="Ausgabe: User nicht vorhanden" style="rounded=0;whiteSpace=wrap;html=1;" vertex="1" parent="1">
          <mxGeometry x="270" y="-1680" width="120" height="60" as="geometry" />
        </mxCell>
        <mxCell id="CUQLExU0p5yGPLY8ELJB-27" style="edgeStyle=orthogonalEdgeStyle;rounded=0;orthogonalLoop=1;jettySize=auto;html=1;" edge="1" parent="1" source="CUQLExU0p5yGPLY8ELJB-24" target="CUQLExU0p5yGPLY8ELJB-26">
          <mxGeometry relative="1" as="geometry" />
        </mxCell>
        <mxCell id="CUQLExU0p5yGPLY8ELJB-24" value="User existiert" style="rounded=0;whiteSpace=wrap;html=1;" vertex="1" parent="1">
          <mxGeometry x="65" y="-1380" width="120" height="50" as="geometry" />
        </mxCell>
        <mxCell id="CUQLExU0p5yGPLY8ELJB-29" value="Nein" style="edgeStyle=orthogonalEdgeStyle;rounded=0;orthogonalLoop=1;jettySize=auto;html=1;" edge="1" parent="1" source="CUQLExU0p5yGPLY8ELJB-26" target="CUQLExU0p5yGPLY8ELJB-28">
          <mxGeometry relative="1" as="geometry" />
        </mxCell>
        <mxCell id="CUQLExU0p5yGPLY8ELJB-35" value="Ja" style="edgeStyle=orthogonalEdgeStyle;rounded=0;orthogonalLoop=1;jettySize=auto;html=1;" edge="1" parent="1" source="CUQLExU0p5yGPLY8ELJB-26" target="CUQLExU0p5yGPLY8ELJB-34">
          <mxGeometry relative="1" as="geometry" />
        </mxCell>
        <mxCell id="CUQLExU0p5yGPLY8ELJB-26" value="Passwort korrekt" style="rhombus;whiteSpace=wrap;html=1;" vertex="1" parent="1">
          <mxGeometry x="85" y="-1310" width="80" height="80" as="geometry" />
        </mxCell>
        <mxCell id="CUQLExU0p5yGPLY8ELJB-40" style="edgeStyle=orthogonalEdgeStyle;rounded=0;orthogonalLoop=1;jettySize=auto;html=1;entryX=1;entryY=0.5;entryDx=0;entryDy=0;" edge="1" parent="1" source="CUQLExU0p5yGPLY8ELJB-28" target="CUQLExU0p5yGPLY8ELJB-17">
          <mxGeometry relative="1" as="geometry">
            <Array as="points">
              <mxPoint x="354" y="-1560" />
              <mxPoint x="180" y="-1560" />
            </Array>
          </mxGeometry>
        </mxCell>
        <mxCell id="CUQLExU0p5yGPLY8ELJB-28" value="Ausgabe: Passwort falsch" style="rounded=0;whiteSpace=wrap;html=1;" vertex="1" parent="1">
          <mxGeometry x="294" y="-1430" width="120" height="60" as="geometry" />
        </mxCell>
        <mxCell id="CUQLExU0p5yGPLY8ELJB-39" style="edgeStyle=orthogonalEdgeStyle;rounded=0;orthogonalLoop=1;jettySize=auto;html=1;" edge="1" parent="1" source="CUQLExU0p5yGPLY8ELJB-34" target="CUQLExU0p5yGPLY8ELJB-38">
          <mxGeometry relative="1" as="geometry" />
        </mxCell>
        <mxCell id="CUQLExU0p5yGPLY8ELJB-34" value="Anmeldung erfolgreich" style="rounded=0;whiteSpace=wrap;html=1;" vertex="1" parent="1">
          <mxGeometry x="65" y="-1180" width="120" height="60" as="geometry" />
        </mxCell>
        <mxCell id="CUQLExU0p5yGPLY8ELJB-38" value="Ende" style="rounded=1;whiteSpace=wrap;html=1;" vertex="1" parent="1">
          <mxGeometry x="65" y="-1090" width="120" height="60" as="geometry" />
        </mxCell>
        <mxCell id="CUQLExU0p5yGPLY8ELJB-41" value="1.1. Registrierung" style="text;html=1;strokeColor=none;fillColor=none;align=center;verticalAlign=middle;whiteSpace=wrap;rounded=0;" vertex="1" parent="1">
          <mxGeometry x="730" y="-1870" width="150" height="30" as="geometry" />
        </mxCell>
        <mxCell id="CUQLExU0p5yGPLY8ELJB-62" style="edgeStyle=orthogonalEdgeStyle;rounded=0;orthogonalLoop=1;jettySize=auto;html=1;" edge="1" parent="1" source="CUQLExU0p5yGPLY8ELJB-42" target="CUQLExU0p5yGPLY8ELJB-63">
          <mxGeometry relative="1" as="geometry">
            <mxPoint x="800" y="-1740" as="targetPoint" />
          </mxGeometry>
        </mxCell>
        <mxCell id="CUQLExU0p5yGPLY8ELJB-42" value="Start" style="rounded=1;whiteSpace=wrap;html=1;" vertex="1" parent="1">
          <mxGeometry x="740" y="-1820" width="120" height="60" as="geometry" />
        </mxCell>
        <mxCell id="CUQLExU0p5yGPLY8ELJB-66" style="edgeStyle=orthogonalEdgeStyle;rounded=0;orthogonalLoop=1;jettySize=auto;html=1;" edge="1" parent="1" source="CUQLExU0p5yGPLY8ELJB-63" target="CUQLExU0p5yGPLY8ELJB-64">
          <mxGeometry relative="1" as="geometry" />
        </mxCell>
        <mxCell id="CUQLExU0p5yGPLY8ELJB-63" value="Account erstellen" style="rounded=0;whiteSpace=wrap;html=1;" vertex="1" parent="1">
          <mxGeometry x="740" y="-1730" width="120" height="60" as="geometry" />
        </mxCell>
        <mxCell id="CUQLExU0p5yGPLY8ELJB-67" style="edgeStyle=orthogonalEdgeStyle;rounded=0;orthogonalLoop=1;jettySize=auto;html=1;" edge="1" parent="1" source="CUQLExU0p5yGPLY8ELJB-64" target="CUQLExU0p5yGPLY8ELJB-65">
          <mxGeometry relative="1" as="geometry" />
        </mxCell>
        <mxCell id="CUQLExU0p5yGPLY8ELJB-64" value="Email eingeben" style="shape=parallelogram;perimeter=parallelogramPerimeter;whiteSpace=wrap;html=1;fixedSize=1;" vertex="1" parent="1">
          <mxGeometry x="740" y="-1630" width="120" height="60" as="geometry" />
        </mxCell>
        <mxCell id="CUQLExU0p5yGPLY8ELJB-69" value="" style="edgeStyle=orthogonalEdgeStyle;rounded=0;orthogonalLoop=1;jettySize=auto;html=1;" edge="1" parent="1" source="CUQLExU0p5yGPLY8ELJB-65" target="CUQLExU0p5yGPLY8ELJB-68">
          <mxGeometry relative="1" as="geometry" />
        </mxCell>
        <mxCell id="CUQLExU0p5yGPLY8ELJB-65" value="Passwort eingeben" style="shape=parallelogram;perimeter=parallelogramPerimeter;whiteSpace=wrap;html=1;fixedSize=1;" vertex="1" parent="1">
          <mxGeometry x="735" y="-1530" width="130" height="60" as="geometry" />
        </mxCell>
        <mxCell id="CUQLExU0p5yGPLY8ELJB-72" value="Ja" style="edgeStyle=orthogonalEdgeStyle;rounded=0;orthogonalLoop=1;jettySize=auto;html=1;" edge="1" parent="1" source="CUQLExU0p5yGPLY8ELJB-68" target="CUQLExU0p5yGPLY8ELJB-71">
          <mxGeometry relative="1" as="geometry" />
        </mxCell>
        <mxCell id="CUQLExU0p5yGPLY8ELJB-77" value="" style="edgeStyle=orthogonalEdgeStyle;rounded=0;orthogonalLoop=1;jettySize=auto;html=1;" edge="1" parent="1" source="CUQLExU0p5yGPLY8ELJB-68" target="CUQLExU0p5yGPLY8ELJB-76">
          <mxGeometry relative="1" as="geometry" />
        </mxCell>
        <mxCell id="CUQLExU0p5yGPLY8ELJB-68" value="Konto existiert bereits" style="rhombus;whiteSpace=wrap;html=1;" vertex="1" parent="1">
          <mxGeometry x="750" y="-1450" width="100" height="100" as="geometry" />
        </mxCell>
        <mxCell id="CUQLExU0p5yGPLY8ELJB-74" value="" style="edgeStyle=orthogonalEdgeStyle;rounded=0;orthogonalLoop=1;jettySize=auto;html=1;" edge="1" parent="1" source="CUQLExU0p5yGPLY8ELJB-71" target="CUQLExU0p5yGPLY8ELJB-73">
          <mxGeometry relative="1" as="geometry" />
        </mxCell>
        <mxCell id="CUQLExU0p5yGPLY8ELJB-71" value="Ausgabe Konto existiert bereits" style="whiteSpace=wrap;html=1;" vertex="1" parent="1">
          <mxGeometry x="920" y="-1430" width="120" height="60" as="geometry" />
        </mxCell>
        <mxCell id="CUQLExU0p5yGPLY8ELJB-73" value="Ende" style="rounded=1;whiteSpace=wrap;html=1;" vertex="1" parent="1">
          <mxGeometry x="920" y="-1340" width="120" height="60" as="geometry" />
        </mxCell>
        <mxCell id="CUQLExU0p5yGPLY8ELJB-79" value="" style="edgeStyle=orthogonalEdgeStyle;rounded=0;orthogonalLoop=1;jettySize=auto;html=1;" edge="1" parent="1" source="CUQLExU0p5yGPLY8ELJB-76" target="CUQLExU0p5yGPLY8ELJB-78">
          <mxGeometry relative="1" as="geometry" />
        </mxCell>
        <mxCell id="CUQLExU0p5yGPLY8ELJB-76" value="Konto nicht vorhanden" style="whiteSpace=wrap;html=1;" vertex="1" parent="1">
          <mxGeometry x="740" y="-1320" width="120" height="60" as="geometry" />
        </mxCell>
        <mxCell id="CUQLExU0p5yGPLY8ELJB-81" value="Nein" style="edgeStyle=orthogonalEdgeStyle;rounded=0;orthogonalLoop=1;jettySize=auto;html=1;" edge="1" parent="1" source="CUQLExU0p5yGPLY8ELJB-78" target="CUQLExU0p5yGPLY8ELJB-80">
          <mxGeometry relative="1" as="geometry">
            <mxPoint x="710" y="-1190" as="targetPoint" />
          </mxGeometry>
        </mxCell>
        <mxCell id="CUQLExU0p5yGPLY8ELJB-99" value="" style="edgeStyle=orthogonalEdgeStyle;rounded=0;orthogonalLoop=1;jettySize=auto;html=1;" edge="1" parent="1" source="CUQLExU0p5yGPLY8ELJB-78" target="CUQLExU0p5yGPLY8ELJB-98">
          <mxGeometry relative="1" as="geometry" />
        </mxCell>
        <mxCell id="CUQLExU0p5yGPLY8ELJB-78" value="Email gültig" style="rhombus;whiteSpace=wrap;html=1;" vertex="1" parent="1">
          <mxGeometry x="760" y="-1230" width="80" height="80" as="geometry" />
        </mxCell>
        <mxCell id="CUQLExU0p5yGPLY8ELJB-87" style="edgeStyle=orthogonalEdgeStyle;rounded=0;orthogonalLoop=1;jettySize=auto;html=1;entryX=0;entryY=0.5;entryDx=0;entryDy=0;" edge="1" parent="1" source="CUQLExU0p5yGPLY8ELJB-80" target="CUQLExU0p5yGPLY8ELJB-64">
          <mxGeometry relative="1" as="geometry">
            <Array as="points">
              <mxPoint x="630" y="-1600" />
            </Array>
          </mxGeometry>
        </mxCell>
        <mxCell id="CUQLExU0p5yGPLY8ELJB-80" value="Ausgabe: Bitte gültige Email eingeben" style="whiteSpace=wrap;html=1;" vertex="1" parent="1">
          <mxGeometry x="570" y="-1430" width="120" height="60" as="geometry" />
        </mxCell>
        <mxCell id="CUQLExU0p5yGPLY8ELJB-83" style="edgeStyle=orthogonalEdgeStyle;rounded=0;orthogonalLoop=1;jettySize=auto;html=1;exitX=0.5;exitY=1;exitDx=0;exitDy=0;" edge="1" parent="1" source="CUQLExU0p5yGPLY8ELJB-80" target="CUQLExU0p5yGPLY8ELJB-80">
          <mxGeometry relative="1" as="geometry" />
        </mxCell>
        <mxCell id="CUQLExU0p5yGPLY8ELJB-95" style="edgeStyle=orthogonalEdgeStyle;rounded=0;orthogonalLoop=1;jettySize=auto;html=1;entryX=0.519;entryY=0.346;entryDx=0;entryDy=0;entryPerimeter=0;" edge="1" parent="1" source="CUQLExU0p5yGPLY8ELJB-90" target="CUQLExU0p5yGPLY8ELJB-93">
          <mxGeometry relative="1" as="geometry" />
        </mxCell>
        <mxCell id="CUQLExU0p5yGPLY8ELJB-90" value="Emailbestätigung senden" style="whiteSpace=wrap;html=1;" vertex="1" parent="1">
          <mxGeometry x="980" y="-1110" width="120" height="60" as="geometry" />
        </mxCell>
        <mxCell id="CUQLExU0p5yGPLY8ELJB-97" value="" style="edgeStyle=orthogonalEdgeStyle;rounded=0;orthogonalLoop=1;jettySize=auto;html=1;" edge="1" parent="1" source="CUQLExU0p5yGPLY8ELJB-93" target="CUQLExU0p5yGPLY8ELJB-96">
          <mxGeometry relative="1" as="geometry" />
        </mxCell>
        <mxCell id="CUQLExU0p5yGPLY8ELJB-93" value="Speicherung User Daten" style="shape=cylinder3;whiteSpace=wrap;html=1;boundedLbl=1;backgroundOutline=1;size=15;" vertex="1" parent="1">
          <mxGeometry x="1010" y="-1030" width="70" height="90" as="geometry" />
        </mxCell>
        <mxCell id="CUQLExU0p5yGPLY8ELJB-96" value="Ende" style="rounded=1;whiteSpace=wrap;html=1;" vertex="1" parent="1">
          <mxGeometry x="985" y="-900" width="120" height="60" as="geometry" />
        </mxCell>
        <mxCell id="CUQLExU0p5yGPLY8ELJB-101" value="" style="edgeStyle=orthogonalEdgeStyle;rounded=0;orthogonalLoop=1;jettySize=auto;html=1;" edge="1" parent="1" source="CUQLExU0p5yGPLY8ELJB-98" target="CUQLExU0p5yGPLY8ELJB-100">
          <mxGeometry relative="1" as="geometry" />
        </mxCell>
        <mxCell id="CUQLExU0p5yGPLY8ELJB-98" value="Passwort prüfen" style="whiteSpace=wrap;html=1;" vertex="1" parent="1">
          <mxGeometry x="740" y="-1120" width="120" height="60" as="geometry" />
        </mxCell>
        <mxCell id="CUQLExU0p5yGPLY8ELJB-102" value="Ja" style="edgeStyle=orthogonalEdgeStyle;rounded=0;orthogonalLoop=1;jettySize=auto;html=1;entryX=0;entryY=0.5;entryDx=0;entryDy=0;" edge="1" parent="1" source="CUQLExU0p5yGPLY8ELJB-100" target="CUQLExU0p5yGPLY8ELJB-90">
          <mxGeometry relative="1" as="geometry" />
        </mxCell>
        <mxCell id="CUQLExU0p5yGPLY8ELJB-104" value="Nein" style="edgeStyle=orthogonalEdgeStyle;rounded=0;orthogonalLoop=1;jettySize=auto;html=1;" edge="1" parent="1" source="CUQLExU0p5yGPLY8ELJB-100" target="CUQLExU0p5yGPLY8ELJB-103">
          <mxGeometry relative="1" as="geometry" />
        </mxCell>
        <mxCell id="CUQLExU0p5yGPLY8ELJB-100" value="Länge &amp;gt; 8" style="rhombus;whiteSpace=wrap;html=1;" vertex="1" parent="1">
          <mxGeometry x="760" y="-990" width="80" height="80" as="geometry" />
        </mxCell>
        <mxCell id="CUQLExU0p5yGPLY8ELJB-105" style="edgeStyle=orthogonalEdgeStyle;rounded=0;orthogonalLoop=1;jettySize=auto;html=1;" edge="1" parent="1" source="CUQLExU0p5yGPLY8ELJB-103" target="CUQLExU0p5yGPLY8ELJB-65">
          <mxGeometry relative="1" as="geometry">
            <Array as="points">
              <mxPoint x="560" y="-950" />
              <mxPoint x="560" y="-1500" />
            </Array>
          </mxGeometry>
        </mxCell>
        <mxCell id="CUQLExU0p5yGPLY8ELJB-103" value="Ausgabe Passwort zu kurz" style="whiteSpace=wrap;html=1;" vertex="1" parent="1">
          <mxGeometry x="500" y="-1160" width="120" height="60" as="geometry" />
        </mxCell>
      </root>
    </mxGraphModel>
  </diagram>
</mxfile>
